<svg width="19" height="19" viewBox="0 0 19 19" fill="none" xmlns="http://www.w3.org/2000/svg">
<path d="M7.53454 10.156C9.16046 10.156 10.483 8.83348 10.483 7.20756C10.483 5.58164 9.16046 4.25908 7.53454 4.25908C5.90894 4.25908 4.58606 5.58164 4.58606 7.20756C4.58606 8.83348 5.90862 10.156 7.53454 10.156ZM5.56889 6.22473H6.55171V5.24191C6.55171 5.06074 6.69848 4.9143 6.87932 4.9143H8.18976C8.3706 4.9143 8.51737 5.06074 8.51737 5.24191V6.22473H9.50019C9.68103 6.22473 9.8278 6.37117 9.8278 6.55234V7.86278C9.8278 8.04394 9.68103 8.19038 9.50019 8.19038H8.51737V9.17321C8.51737 9.35438 8.3706 9.50082 8.18976 9.50082H6.87932C6.69848 9.50082 6.55171 9.35438 6.55171 9.17321V8.19038H5.56889C5.38805 8.19038 5.24128 8.04394 5.24128 7.86278V6.55234C5.24128 6.37117 5.38805 6.22473 5.56889 6.22473Z" fill="white"/>
<path d="M10.483 1.63804V0.327609V0H4.58606V0.327609V1.63804V1.96565H10.483V1.63804Z" fill="white"/>
<path d="M7.20753 7.86249V8.84532H7.86275V7.86249C7.86275 7.68132 8.00952 7.53488 8.19036 7.53488H9.17318V6.87966H8.19036C8.00952 6.87966 7.86275 6.73322 7.86275 6.55206V5.56923H7.20753V6.55206C7.20753 6.73322 7.06076 6.87966 6.87992 6.87966H5.89709V7.53488H6.87992C7.06076 7.53488 7.20753 7.68132 7.20753 7.86249Z" fill="white"/>
<path d="M14.2095 0.655365H11.1382V1.31058H13.7591C13.9399 1.31058 14.0867 1.45702 14.0867 1.63819V17.3634C14.0867 17.5446 13.9399 17.691 13.7591 17.691H0.982338C0.801498 17.691 0.654729 17.5446 0.654729 17.3634V1.63819C0.654729 1.45702 0.801498 1.31058 0.982338 1.31058H3.93082V0.655365H0.531876C0.238339 0.655365 -0.000488281 0.894192 -0.000488281 1.18773V17.8139C-0.000488281 18.1074 0.238339 18.3462 0.531876 18.3462H14.2095C14.5031 18.3462 14.7419 18.1074 14.7419 17.8139V1.18773C14.7419 0.894192 14.5031 0.655365 14.2095 0.655365Z" fill="white"/>
<path d="M3.93081 1.96536H1.30994V17.0354H13.4315V1.96536H11.1382V2.29297C11.1382 2.47414 10.9914 2.62058 10.8106 2.62058H4.25842C4.07758 2.62058 3.93081 2.47414 3.93081 2.29297V1.96536ZM8.18972 12.7765H4.25842C4.07758 12.7765 3.93081 12.63 3.93081 12.4488C3.93081 12.2677 4.07758 12.1212 4.25842 12.1212H8.18972C8.37056 12.1212 8.51733 12.2677 8.51733 12.4488C8.51733 12.63 8.37056 12.7765 8.18972 12.7765ZM10.483 13.7593C10.6638 13.7593 10.8106 13.9057 10.8106 14.0869C10.8106 14.2681 10.6638 14.4145 10.483 14.4145H6.55168C6.37084 14.4145 6.22407 14.2681 6.22407 14.0869C6.22407 13.9057 6.37084 13.7593 6.55168 13.7593H10.483ZM2.29276 12.1212H2.94798C3.12882 12.1212 3.27559 12.2677 3.27559 12.4488C3.27559 12.63 3.12882 12.7765 2.94798 12.7765H2.29276C2.11192 12.7765 1.96515 12.63 1.96515 12.4488C1.96515 12.2677 2.11192 12.1212 2.29276 12.1212ZM2.29276 13.7593H5.24124C5.42208 13.7593 5.56885 13.9057 5.56885 14.0869C5.56885 14.2681 5.42208 14.4145 5.24124 14.4145H2.29276C2.11192 14.4145 1.96515 14.2681 1.96515 14.0869C1.96515 13.9057 2.11192 13.7593 2.29276 13.7593ZM2.94798 16.0525H2.29276C2.11192 16.0525 1.96515 15.9061 1.96515 15.7249C1.96515 15.5438 2.11192 15.3973 2.29276 15.3973H2.94798C3.12882 15.3973 3.27559 15.5438 3.27559 15.7249C3.27559 15.9061 3.12882 16.0525 2.94798 16.0525ZM8.18972 16.0525H4.25842C4.07758 16.0525 3.93081 15.9061 3.93081 15.7249C3.93081 15.5438 4.07758 15.3973 4.25842 15.3973H8.18972C8.37056 15.3973 8.51733 15.5438 8.51733 15.7249C8.51733 15.9061 8.37056 16.0525 8.18972 16.0525ZM12.4486 16.0525H9.50016C9.31932 16.0525 9.17255 15.9061 9.17255 15.7249C9.17255 15.5438 9.31932 15.3973 9.50016 15.3973H12.4486C12.6295 15.3973 12.7762 15.5438 12.7762 15.7249C12.7762 15.9061 12.6295 16.0525 12.4486 16.0525ZM12.4486 14.4158H11.7934C11.6126 14.4158 11.4658 14.2694 11.4658 14.0882C11.4658 13.907 11.6126 13.7606 11.7934 13.7606H12.4486C12.6295 13.7606 12.7762 13.907 12.7762 14.0882C12.7762 14.2694 12.6295 14.4158 12.4486 14.4158ZM12.4486 12.1212C12.6295 12.1212 12.7762 12.2677 12.7762 12.4488C12.7762 12.63 12.6295 12.7765 12.4486 12.7765H9.50016C9.31932 12.7765 9.17255 12.63 9.17255 12.4488C9.17255 12.2677 9.31932 12.1212 9.50016 12.1212H12.4486ZM7.5345 3.60341C9.52145 3.60341 11.1382 5.22016 11.1382 7.2071C11.1382 9.19405 9.52145 10.8108 7.5345 10.8108C5.54756 10.8108 3.93081 9.19405 3.93081 7.2071C3.93081 5.22016 5.54723 3.60341 7.5345 3.60341Z" fill="white"/>
<path d="M16.3789 6.87967H18.9998V8.84532H16.3789V6.87967Z" fill="white"/>
<path d="M16.3789 9.50069H18.9998V14.0872H16.3789V9.50069Z" fill="white"/>
<path d="M18.1706 0H17.2081C16.7507 0 16.3789 0.372164 16.3789 0.829178V2.29326V6.22457H18.9998V2.29326V0.829178C18.9998 0.372164 18.6279 0 18.1706 0V0Z" fill="white"/>
<path d="M16.3789 16.3802C16.3789 16.4513 16.4018 16.5201 16.4444 16.5768L17.3617 17.7997V18.6735C17.3617 18.8546 17.5085 19.0011 17.6893 19.0011C17.8702 19.0011 18.017 18.8546 18.017 18.6735V17.7997L18.9343 16.5768C18.9768 16.5201 18.9998 16.4513 18.9998 16.3802V14.7422H16.3789V16.3802Z" fill="white"/>
</svg>
